<mxfile host="app.diagrams.net" modified="2020-11-04T07:37:19.104Z" agent="5.0 (X11; Linux x86_64) AppleWebKit/537.36 (KHTML, like Gecko) Ubuntu Chromium/83.0.4103.61 Chrome/83.0.4103.61 Safari/537.36" etag="BaOiO1LrAdvnBD0lZFN9" version="13.8.9-1" type="github">
  <diagram id="npmHoXrw_FrEof_6zsUE" name="Page-1">
    <mxGraphModel dx="1422" dy="732" grid="1" gridSize="10" guides="1" tooltips="1" connect="1" arrows="1" fold="1" page="1" pageScale="1" pageWidth="850" pageHeight="1100" math="0" shadow="0">
      <root>
        <mxCell id="0" />
        <mxCell id="1" parent="0" />
        <mxCell id="xjIk-P3U5AOT3LO1g332-5" value="" style="rounded=1;whiteSpace=wrap;html=1;" vertex="1" parent="1">
          <mxGeometry x="110" y="70" width="490" height="140" as="geometry" />
        </mxCell>
        <mxCell id="xjIk-P3U5AOT3LO1g332-1" value="Client (e.g. Browser)" style="rounded=0;whiteSpace=wrap;html=1;" vertex="1" parent="1">
          <mxGeometry x="160" y="122" width="120" height="60" as="geometry" />
        </mxCell>
        <mxCell id="xjIk-P3U5AOT3LO1g332-2" value="Client (e.g. Browser)" style="rounded=0;whiteSpace=wrap;html=1;" vertex="1" parent="1">
          <mxGeometry x="290" y="122" width="120" height="60" as="geometry" />
        </mxCell>
        <mxCell id="xjIk-P3U5AOT3LO1g332-3" value="Client (e.g. Browser)" style="rounded=0;whiteSpace=wrap;html=1;" vertex="1" parent="1">
          <mxGeometry x="420" y="122" width="120" height="60" as="geometry" />
        </mxCell>
        <mxCell id="xjIk-P3U5AOT3LO1g332-6" value="&lt;font style=&quot;font-size: 16px&quot;&gt;Tier 1 - Presentation (Frontend)&lt;/font&gt;" style="text;html=1;strokeColor=none;fillColor=none;align=center;verticalAlign=middle;whiteSpace=wrap;rounded=0;" vertex="1" parent="1">
          <mxGeometry x="235" y="80" width="240" height="20" as="geometry" />
        </mxCell>
        <mxCell id="xjIk-P3U5AOT3LO1g332-7" value="" style="rounded=1;whiteSpace=wrap;html=1;" vertex="1" parent="1">
          <mxGeometry x="105" y="280" width="490" height="140" as="geometry" />
        </mxCell>
        <mxCell id="xjIk-P3U5AOT3LO1g332-8" value="Application Server" style="rounded=0;whiteSpace=wrap;html=1;" vertex="1" parent="1">
          <mxGeometry x="155" y="332" width="120" height="60" as="geometry" />
        </mxCell>
        <mxCell id="xjIk-P3U5AOT3LO1g332-9" value="Application Server" style="rounded=0;whiteSpace=wrap;html=1;" vertex="1" parent="1">
          <mxGeometry x="285" y="332" width="120" height="60" as="geometry" />
        </mxCell>
        <mxCell id="xjIk-P3U5AOT3LO1g332-10" value="Application Server" style="rounded=0;whiteSpace=wrap;html=1;" vertex="1" parent="1">
          <mxGeometry x="415" y="332" width="120" height="60" as="geometry" />
        </mxCell>
        <mxCell id="xjIk-P3U5AOT3LO1g332-11" value="&lt;font style=&quot;font-size: 16px&quot;&gt;Tier 2 - Logic (Business Logic)&lt;/font&gt;" style="text;html=1;strokeColor=none;fillColor=none;align=center;verticalAlign=middle;whiteSpace=wrap;rounded=0;" vertex="1" parent="1">
          <mxGeometry x="230" y="290" width="240" height="20" as="geometry" />
        </mxCell>
      </root>
    </mxGraphModel>
  </diagram>
</mxfile>
